<svg width="24" height="24" viewBox="0 0 24 24" fill="none" xmlns="http://www.w3.org/2000/svg">
<rect width="24" height="24" rx="8" fill="#2357ED"/>
<path d="M13.2597 5.92009L10.133 5.42676C7.52634 5.02009 6.31967 5.90009 5.90634 8.50676L5.413 11.6334C5.14634 13.3401 5.42634 14.4468 6.393 15.1201C6.89967 15.4801 7.593 15.7201 8.493 15.8601L11.6197 16.3534C14.2263 16.7601 15.433 15.8801 15.8463 13.2734L16.333 10.1468C16.413 9.63343 16.4463 9.17343 16.4197 8.76676C16.333 7.10009 15.353 6.24676 13.2597 5.92009ZM9.493 10.2334C8.713 10.2334 8.07967 9.60009 8.07967 8.82676C8.07967 8.04676 8.713 7.41343 9.493 7.41343C10.2663 7.41343 10.8997 8.04676 10.8997 8.82676C10.8997 9.60009 10.2663 10.2334 9.493 10.2334Z" fill="white"/>
<path d="M17.6668 12.9799L16.6668 15.9865C15.8334 18.4932 14.5001 19.1599 11.9934 18.3265L8.98676 17.3265C8.04676 17.0132 7.36676 16.6265 6.92676 16.1399C7.34676 16.3065 7.83342 16.4332 8.38676 16.5199L11.5201 17.0132C11.9468 17.0799 12.3468 17.1132 12.7201 17.1132C14.9201 17.1132 16.1001 15.9265 16.5068 13.3732L16.9934 10.2465C17.0601 9.85988 17.0868 9.51988 17.0868 9.20654C18.1001 10.0399 18.2468 11.2265 17.6668 12.9799Z" fill="white"/>
</svg>
