<svg width="88" height="112" viewBox="0 0 88 112" fill="none" xmlns="http://www.w3.org/2000/svg">
<g filter="url(#filter0_d_4198_5358)">
<path d="M32 15C25.3726 15 20 20.3726 20 27V51C20 57.6274 25.3726 63 32 63C35.6772 63 39.0127 65.0925 40.7954 68.3087C41.5718 69.7093 42.3729 71.0775 43 71.9714V87H45V71.9714C45.6271 71.0775 46.4282 69.7093 47.2046 68.3087C48.9873 65.0925 52.3228 63 56 63C62.6274 63 68 57.6274 68 51V27C68 20.3726 62.6274 15 56 15H32Z" fill="white"/>
<path d="M43.5 71.9714V71.8135L43.4093 71.6843C42.7987 70.8138 42.0084 69.4657 41.2327 68.0663C39.3678 64.7018 35.8708 62.5 32 62.5C25.6487 62.5 20.5 57.3513 20.5 51V27C20.5 20.6487 25.6487 15.5 32 15.5H56C62.3513 15.5 67.5 20.6487 67.5 27V51C67.5 57.3513 62.3513 62.5 56 62.5C52.1292 62.5 48.6322 64.7018 46.7673 68.0663C45.9916 69.4657 45.2013 70.8138 44.5907 71.6843L44.5 71.8135V71.9714V86.5H43.5V71.9714Z" stroke="#F2F2F2"/>
</g>
<circle cx="44" cy="91" r="4" fill="white" stroke="#151515" stroke-width="2"/>
<path d="M54.5 23.5H33.5C30.595 23.5 28.25 25.8275 28.25 28.6975V47.79C28.25 50.66 30.595 53.005 33.5 53.005H34.83C36.2125 53.005 37.56 53.5475 38.54 54.5275L41.5325 57.485C42.8975 58.8325 45.1025 58.8325 46.4675 57.485L49.46 54.5275C50.44 53.5475 51.7875 53.005 53.17 53.005H54.5C57.405 53.005 59.75 50.66 59.75 47.79V28.6975C59.75 25.8275 57.405 23.5 54.5 23.5Z" fill="#FF5B01"/>
<path d="M50.465 36.3375C49.6775 32.8725 46.655 31.3125 44 31.3125C44 31.3125 44 31.3125 43.9925 31.3125C41.345 31.3125 38.315 32.865 37.5275 36.33C36.65 40.2 39.02 43.4775 41.165 45.54C41.96 46.305 42.98 46.6875 44 46.6875C45.02 46.6875 46.04 46.305 46.8275 45.54C48.9725 43.4775 51.3425 40.2075 50.465 36.3375ZM44 40.095C42.695 40.095 41.6375 39.0375 41.6375 37.7325C41.6375 36.4275 42.695 35.37 44 35.37C45.305 35.37 46.3625 36.4275 46.3625 37.7325C46.3625 39.0375 45.305 40.095 44 40.095Z" fill="white"/>
<defs>
<filter id="filter0_d_4198_5358" x="0" y="0" width="88" height="112" filterUnits="userSpaceOnUse" color-interpolation-filters="sRGB">
<feFlood flood-opacity="0" result="BackgroundImageFix"/>
<feColorMatrix in="SourceAlpha" type="matrix" values="0 0 0 0 0 0 0 0 0 0 0 0 0 0 0 0 0 0 127 0" result="hardAlpha"/>
<feOffset dy="5"/>
<feGaussianBlur stdDeviation="10"/>
<feComposite in2="hardAlpha" operator="out"/>
<feColorMatrix type="matrix" values="0 0 0 0 0.0823529 0 0 0 0 0.0823529 0 0 0 0 0.0823529 0 0 0 0.05 0"/>
<feBlend mode="normal" in2="BackgroundImageFix" result="effect1_dropShadow_4198_5358"/>
<feBlend mode="normal" in="SourceGraphic" in2="effect1_dropShadow_4198_5358" result="shape"/>
</filter>
</defs>
</svg>
