<svg width="88" height="98" viewBox="0 0 88 98" fill="none" xmlns="http://www.w3.org/2000/svg">
<circle cx="44" cy="73" r="5" fill="white" stroke="#151515" stroke-width="2"/>
<g filter="url(#filter0_d_4196_4780)">
<path d="M20 27C20 20.3726 25.3726 15 32 15H56C62.6274 15 68 20.3726 68 27V51C68 57.6274 62.6274 63 56 63C52.3228 63 48.9873 65.0925 47.2046 68.3087C45.8781 70.7017 44.4794 73 44 73C43.5206 73 42.1219 70.7017 40.7954 68.3087C39.0127 65.0925 35.6772 63 32 63C25.3726 63 20 57.6274 20 51V27Z" fill="white"/>
<path d="M20.5 27C20.5 20.6487 25.6487 15.5 32 15.5H56C62.3513 15.5 67.5 20.6487 67.5 27V51C67.5 57.3513 62.3513 62.5 56 62.5C52.1292 62.5 48.6322 64.7018 46.7673 68.0663C46.1057 69.2597 45.4318 70.4192 44.8671 71.2767C44.5835 71.7073 44.3364 72.0479 44.1387 72.2759C44.0854 72.3374 44.0391 72.3866 44 72.425C43.9609 72.3866 43.9146 72.3374 43.8613 72.2759C43.6636 72.0479 43.4165 71.7073 43.1329 71.2767C42.5682 70.4192 41.8943 69.2597 41.2327 68.0663C39.3678 64.7018 35.8708 62.5 32 62.5C25.6487 62.5 20.5 57.3513 20.5 51V27ZM43.8792 72.5257C43.8792 72.5255 43.8815 72.5241 43.8861 72.5219C43.8814 72.5248 43.8792 72.5259 43.8792 72.5257ZM44.1139 72.5219C44.1184 72.524 44.1207 72.5255 44.1208 72.5257C44.1209 72.5259 44.1187 72.5248 44.1139 72.5219Z" stroke="#F2F2F2"/>
</g>
<path d="M54.5 23.5H33.5C30.595 23.5 28.25 25.8275 28.25 28.6975V47.79C28.25 50.66 30.595 53.005 33.5 53.005H34.83C36.2125 53.005 37.56 53.5475 38.54 54.5275L41.5325 57.485C42.8975 58.8325 45.1025 58.8325 46.4675 57.485L49.46 54.5275C50.44 53.5475 51.7875 53.005 53.17 53.005H54.5C57.405 53.005 59.75 50.66 59.75 47.79V28.6975C59.75 25.8275 57.405 23.5 54.5 23.5ZM44 29.7125C45.89 29.7125 47.4125 31.2525 47.4125 33.125C47.4125 34.98 45.9425 36.4675 44.1225 36.5375C44.0525 36.5375 43.9475 36.5375 43.86 36.5375C42.0225 36.4675 40.57 34.98 40.57 33.125C40.5875 31.2525 42.11 29.7125 44 29.7125ZM48.8125 45.7075C46.17 47.475 41.83 47.475 39.1875 45.7075C36.86 44.1675 36.86 41.6125 39.1875 40.055C41.8475 38.2875 46.1875 38.2875 48.8125 40.055C51.14 41.6125 51.14 44.15 48.8125 45.7075Z" fill="#FF5B01"/>
<defs>
<filter id="filter0_d_4196_4780" x="0" y="0" width="88" height="98" filterUnits="userSpaceOnUse" color-interpolation-filters="sRGB">
<feFlood flood-opacity="0" result="BackgroundImageFix"/>
<feColorMatrix in="SourceAlpha" type="matrix" values="0 0 0 0 0 0 0 0 0 0 0 0 0 0 0 0 0 0 127 0" result="hardAlpha"/>
<feOffset dy="5"/>
<feGaussianBlur stdDeviation="10"/>
<feComposite in2="hardAlpha" operator="out"/>
<feColorMatrix type="matrix" values="0 0 0 0 0.0823529 0 0 0 0 0.0823529 0 0 0 0 0.0823529 0 0 0 0.05 0"/>
<feBlend mode="normal" in2="BackgroundImageFix" result="effect1_dropShadow_4196_4780"/>
<feBlend mode="normal" in="SourceGraphic" in2="effect1_dropShadow_4196_4780" result="shape"/>
</filter>
</defs>
</svg>
